<svg width="18" height="18" viewBox="0 0 18 18" fill="none" xmlns="http://www.w3.org/2000/svg">
<rect width="18" height="18" fill="#1E1E1E"/>
<g id="Section 3">
<path d="M-6981 -8974.42C-6981 -8975.52 -6980.1 -8976.42 -6979 -8976.42H38993C38994.1 -8976.42 38995 -8975.52 38995 -8974.42V8979.58C38995 8980.69 38994.1 8981.58 38993 8981.58H-6979C-6980.1 8981.58 -6981 8980.69 -6981 8979.58V-8974.42Z" fill="#444444"/>
<path d="M-6979 -8976.42V-8975.42H38993V-8976.42V-8977.42H-6979V-8976.42ZM38995 -8974.42H38994V8979.58H38995H38996V-8974.42H38995ZM38993 8981.58V8980.58H-6979V8981.58V8982.58H38993V8981.58ZM-6981 8979.58H-6980V-8974.42H-6981H-6982V8979.58H-6981ZM-6979 8981.58V8980.58C-6979.55 8980.58 -6980 8980.14 -6980 8979.58H-6981H-6982C-6982 8981.24 -6980.66 8982.58 -6979 8982.58V8981.58ZM38995 8979.58H38994C38994 8980.14 38993.6 8980.58 38993 8980.58V8981.58V8982.58C38994.7 8982.58 38996 8981.24 38996 8979.58H38995ZM38993 -8976.42V-8975.42C38993.6 -8975.42 38994 -8974.97 38994 -8974.42H38995H38996C38996 -8976.07 38994.7 -8977.42 38993 -8977.42V-8976.42ZM-6979 -8976.42V-8977.42C-6980.66 -8977.42 -6982 -8976.08 -6982 -8974.42H-6981H-6980C-6980 -8974.97 -6979.55 -8975.42 -6979 -8975.42V-8976.42Z" fill="white" fill-opacity="0.1"/>
<g id="Home/ " clip-path="url(#clip0_257_20)">
<rect width="1440" height="7956" transform="translate(-1249 -7804.42)" fill="#F8F5E5"/>
<g id="Group 2013">
<g id="Group 1854">
<g id="Group 1686">
<g id="Group 1685">
<g id="Frame 2120">
<g id="Social icons">
<g id="Social icon">
<path id="Vector" d="M12.8824 6.4976C14.0399 7.32798 15.4579 7.81656 16.9894 7.81656V4.85896C16.6996 4.85902 16.4105 4.82869 16.1269 4.7684V7.09645C14.5955 7.09645 13.1777 6.60787 12.0199 5.77755V11.8132C12.0199 14.8325 9.58096 17.2799 6.57256 17.2799C5.45005 17.2799 4.40673 16.9394 3.54004 16.3553C4.52922 17.3703 5.90872 18 7.43488 18C10.4435 18 12.8825 15.5525 12.8825 12.5331V6.4976H12.8824ZM13.9464 3.51375C13.3549 2.86517 12.9664 2.02701 12.8824 1.10038V0.719971H12.0651C12.2708 1.89771 12.9725 2.9039 13.9464 3.51375ZM5.44286 14.0384C5.11235 13.6035 4.93374 13.0714 4.93454 12.5244C4.93454 11.1435 6.0501 10.0238 7.42639 10.0238C7.68289 10.0238 7.93784 10.0632 8.18228 10.141V7.11733C7.89662 7.07804 7.60832 7.06136 7.32014 7.06748V9.42098C7.07552 9.34314 6.82044 9.30361 6.56389 9.30385C5.18759 9.30385 4.0721 10.4234 4.0721 11.8045C4.0721 12.781 4.62969 13.6265 5.44286 14.0384Z" fill="white"/>
<path id="Vector_2" d="M12.0207 5.77749C13.1785 6.60781 14.5963 7.09639 16.1277 7.09639V4.76833C15.2729 4.5856 14.5162 4.1373 13.9472 3.51375C12.9733 2.90384 12.2716 1.89765 12.0659 0.719971H9.91892V12.533C9.91406 13.9101 8.80041 15.0252 7.42707 15.0252C6.61778 15.0252 5.89881 14.6381 5.44347 14.0384C4.63037 13.6265 4.07278 12.781 4.07278 11.8046C4.07278 10.4236 5.18827 9.30392 6.56456 9.30392C6.82826 9.30392 7.08241 9.34512 7.32082 9.42104V7.06754C4.36526 7.12882 1.98828 9.55238 1.98828 12.533C1.98828 14.0209 2.5802 15.3698 3.5409 16.3553C4.40759 16.9394 5.45092 17.28 6.57342 17.28C9.58189 17.28 12.0208 14.8324 12.0208 11.8132V5.77749H12.0207Z" fill="white"/>
<path id="Vector_3" d="M16.1269 4.76835V4.13886C15.3561 4.14004 14.6004 3.92339 13.9464 3.5137C14.5253 4.1498 15.2877 4.5884 16.1269 4.76835ZM12.065 0.719988C12.0454 0.607434 12.0303 0.494138 12.0199 0.38041V0H9.05551V11.8131C9.05078 13.1901 7.93719 14.3052 6.56373 14.3052C6.1605 14.3052 5.77979 14.2091 5.44264 14.0384C5.89797 14.6381 6.61695 15.0252 7.42623 15.0252C8.79945 15.0252 9.91328 13.9102 9.91808 12.533V0.719988H12.065ZM7.3201 7.06755V6.39742C7.07241 6.36344 6.82268 6.34639 6.57265 6.34652C3.56394 6.34645 1.125 8.79404 1.125 11.8131C1.125 13.7059 2.08354 15.374 3.54013 16.3552C2.57943 15.3697 1.98751 14.0208 1.98751 12.533C1.98751 9.55239 4.36443 7.12883 7.3201 7.06755Z" fill="white"/>
</g>
</g>
</g>
</g>
</g>
</g>
</g>
</g>
</g>
<defs>
<clipPath id="clip0_257_20">
<rect width="1440" height="7956" fill="white" transform="translate(-1249 -7804.42)"/>
</clipPath>
</defs>
</svg>
