<svg width="12" height="12" viewBox="0 0 12 12" fill="none" xmlns="http://www.w3.org/2000/svg">
<rect width="12" height="12" fill="#1E1E1E"/>
<g id="Section 3">
<path d="M-9494 -8500C-9494 -8501.11 -9493.1 -8502 -9492 -8502H36480C36481.1 -8502 36482 -8501.1 36482 -8500V9454C36482 9455.11 36481.1 9456 36480 9456H-9492C-9493.1 9456 -9494 9455.11 -9494 9454V-8500Z" fill="#444444"/>
<path d="M-9492 -8502V-8501H36480V-8502V-8503H-9492V-8502ZM36482 -8500H36481V9454H36482H36483V-8500H36482ZM36480 9456V9455H-9492V9456V9457H36480V9456ZM-9494 9454H-9493V-8500H-9494H-9495V9454H-9494ZM-9492 9456V9455C-9492.55 9455 -9493 9454.55 -9493 9454H-9494H-9495C-9495 9455.66 -9493.66 9457 -9492 9457V9456ZM36482 9454H36481C36481 9454.55 36480.6 9455 36480 9455V9456V9457C36481.7 9457 36483 9455.66 36483 9454H36482ZM36480 -8502V-8501C36480.6 -8501 36481 -8500.55 36481 -8500H36482H36483C36483 -8501.66 36481.7 -8503 36480 -8503V-8502ZM-9492 -8502V-8503C-9493.66 -8503 -9495 -8501.66 -9495 -8500H-9494H-9493C-9493 -8500.55 -9492.55 -8501 -9492 -8501V-8502Z" fill="white" fill-opacity="0.1"/>
<g id="/stay">
<rect width="1440" height="9879" transform="translate(-1282 -7330)" fill="#F8F5E5"/>
<g id="Group 1934">
<g id="Group 1889">
<g id="Group 1887">
<g id="Group 1886">
<path id="+" d="M6.68325 5.22025H11.9035V6.68325H6.68325V11.9035H5.22025V6.68325H0V5.22025H5.22025V0H6.68325V5.22025Z" fill="#BF5C37"/>
</g>
</g>
</g>
</g>
</g>
</g>
</svg>
