<svg width="18" height="18" viewBox="0 0 18 18" fill="none" xmlns="http://www.w3.org/2000/svg">
<path d="M12.8822 6.4976C14.0397 7.32798 15.4577 7.81656 16.9892 7.81656V4.85896C16.6994 4.85902 16.4103 4.82869 16.1267 4.7684V7.09645C14.5953 7.09645 13.1775 6.60787 12.0197 5.77755V11.8132C12.0197 14.8325 9.58072 17.2799 6.57232 17.2799C5.44981 17.2799 4.40648 16.9394 3.53979 16.3553C4.52898 17.3703 5.90847 18 7.43464 18C10.4432 18 12.8823 15.5525 12.8823 12.5331V6.4976H12.8822ZM13.9462 3.51375C13.3546 2.86517 12.9662 2.02701 12.8822 1.10038V0.719971H12.0648C12.2706 1.89771 12.9723 2.9039 13.9462 3.51375ZM5.44261 14.0384C5.1121 13.6035 4.9335 13.0714 4.9343 12.5244C4.9343 11.1435 6.04985 10.0238 7.42615 10.0238C7.68264 10.0238 7.9376 10.0632 8.18203 10.141V7.11733C7.89638 7.07804 7.60807 7.06136 7.3199 7.06748V9.42098C7.07528 9.34314 6.8202 9.30361 6.56364 9.30385C5.18735 9.30385 4.07186 10.4234 4.07186 11.8045C4.07186 12.781 4.62945 13.6265 5.44261 14.0384Z" fill="white"/>
<path d="M12.0202 5.77749C13.178 6.60781 14.5959 7.09639 16.1273 7.09639V4.76833C15.2724 4.5856 14.5157 4.1373 13.9467 3.51375C12.9728 2.90384 12.2711 1.89765 12.0654 0.719971H9.91843V12.533C9.91357 13.9101 8.79992 15.0252 7.42658 15.0252C6.61729 15.0252 5.89832 14.6381 5.44298 14.0384C4.62988 13.6265 4.07229 12.781 4.07229 11.8046C4.07229 10.4236 5.18778 9.30392 6.56408 9.30392C6.82777 9.30392 7.08192 9.34512 7.32033 9.42104V7.06754C4.36478 7.12882 1.98779 9.55238 1.98779 12.533C1.98779 14.0209 2.57972 15.3698 3.54041 16.3553C4.4071 16.9394 5.45043 17.28 6.57294 17.28C9.5814 17.28 12.0203 14.8324 12.0203 11.8132V5.77749H12.0202Z" fill="white"/>
<path d="M16.1269 4.76835V4.13886C15.3561 4.14004 14.6004 3.92339 13.9464 3.5137C14.5253 4.1498 15.2877 4.5884 16.1269 4.76835ZM12.065 0.719988C12.0454 0.607434 12.0303 0.494138 12.0199 0.38041V0H9.05551V11.8131C9.05078 13.1901 7.93719 14.3052 6.56373 14.3052C6.1605 14.3052 5.77979 14.2091 5.44264 14.0384C5.89797 14.6381 6.61695 15.0252 7.42623 15.0252C8.79945 15.0252 9.91328 13.9102 9.91808 12.533V0.719988H12.065ZM7.3201 7.06755V6.39742C7.07241 6.36344 6.82268 6.34639 6.57265 6.34652C3.56394 6.34645 1.125 8.79404 1.125 11.8131C1.125 13.7059 2.08354 15.374 3.54013 16.3552C2.57943 15.3697 1.98751 14.0208 1.98751 12.533C1.98751 9.55239 4.36443 7.12883 7.3201 7.06755Z" fill="white"/>
</svg>
